<svg id="Layer_1" data-name="Layer 1" xmlns="http://www.w3.org/2000/svg" viewBox="0 0 251.63 251.63"><defs><style>.cls-1{fill:none;}.cls-2{fill:#7289da;}</style></defs><g id="layer1"><path id="path24" class="cls-1" d="M-41.68,142.3" transform="translate(-3.07 -20.69)"/><path id="path69" class="cls-1" d="M-41.68,142.3" transform="translate(-3.07 -20.69)"/><path id="path65" class="cls-1" d="M-41.68,142.3" transform="translate(-3.07 -20.69)"/></g><path class="cls-2" d="M246.76,20.69H170a7.93,7.93,0,0,0-7.21,4.63l-6,13c-14.72,32.14-21.93,66.87-22.1,106.47-.18,41.73,5.33,69.08,20.95,104,10.4,23.24,10.61,23.45,23.36,23.45a7.93,7.93,0,0,0,7.09-11.5l-.46-.91c-17.91-35.66-27-65.17-27-87.61,0-18.27,5.34-15.36,11.65,6.35,7.13,24.53,18.1,45.9,37.11,72.33,15.23,21.17,15.48,21.34,31.31,21.34h8a7.93,7.93,0,0,0,7.94-7.93V28.62A7.93,7.93,0,0,0,246.76,20.69Z" transform="translate(-3.07 -20.69)"/><path class="cls-2" d="M105.86,75.38c3.73-17.84,8.94-36.62,11.59-41.74,6.48-12.54,6.31-12.95-5.3-12.95-8.82,0-11,1.92-16.72,14.92-7.29,16.47-17.87,57.5-21.13,81.92-2.35,17.56-10,21.55-13.67,7.1S63.22,53.1,71.29,26.48c1.6-5.26-1.45-5.79-33.23-5.79H11a7.94,7.94,0,0,0-7.94,7.93V264.38A7.94,7.94,0,0,0,11,272.31H113.3a7.94,7.94,0,0,0,7.3-11.06l-1.88-4.37C98.72,210.22,93.4,135.07,105.86,75.38Z" transform="translate(-3.07 -20.69)"/></svg>